HIERARCHY
ROOT Hips
{
	OFFSET	0.00	0.00	0.00
	CHANNELS 6 Xposition Yposition Zposition Zrotation Xrotation Yrotation
	JOINT Spine
	{
		OFFSET	 0.00	0.01	 0.00
		CHANNELS 3 Zrotation Xrotation Yrotation
		JOINT Spine1
		{
			OFFSET	 0.00	 2.45913012437421	 0.00
			CHANNELS 3 Zrotation Xrotation Yrotation
            JOINT Neck
            {
                OFFSET	 0.00	 2.48462964506057	 0.00
                CHANNELS 3 Zrotation Xrotation Yrotation
                JOINT Head
                {
                    OFFSET	 0.00	 0.927524780924562	 0.00
                    CHANNELS 3 Zrotation Xrotation Yrotation
                    End Site 
                    {
                        OFFSET	 0.00	 1.14999962169752	 0.00
                    }
                }
            }
			JOINT LeftShoulder
			{
				OFFSET	 0.00	 2.48462964506057	 0.00
				CHANNELS 3 Zrotation Xrotation Yrotation
				JOINT LeftUpArm
				{
					OFFSET	 0.00	 1.24881979654096	 0.00
					CHANNELS 3 Zrotation Xrotation Yrotation
					JOINT LeftForeArm
					{
						OFFSET	 0.00	2.59758046908119	 0.00
						CHANNELS 3 Zrotation Xrotation Yrotation
						JOINT LeftHand
						{
							OFFSET	 0.00	2.45542024364365	 0.00
							CHANNELS 3 Zrotation Xrotation Yrotation
							JOINT LeftHandThumb 
							{
								OFFSET	 0.00	0.00	 0.00
								CHANNELS 3 Zrotation Xrotation Yrotation
								End Site
								{
									OFFSET	 0.00	0.00	1.00000003353624
								}
							}
							JOINT L_Wrist_End 
							{
								OFFSET	 0.00	0.99999967115358	 0.00
								CHANNELS 3 Zrotation Xrotation Yrotation
								End Site 
								{
									OFFSET	 0.00	 0.00	 0.00
								}
							}
						}
					}
				}
			}
			JOINT RightShoulder
			{
				OFFSET	 0.00	 2.48462964506057	 0.00
				CHANNELS 3 Zrotation Xrotation Yrotation
				JOINT RightUpArm
				{
					OFFSET	 0.00	 1.24881979654096	 0.00
					CHANNELS 3 Zrotation Xrotation Yrotation
					JOINT RightForeArm
					{
						OFFSET	 0.00	2.59758046908119	 0.00
						CHANNELS 3 Zrotation Xrotation Yrotation
						JOINT RightHand
						{
							OFFSET	 0.00	2.45542024364365	 0.00
							CHANNELS 3 Zrotation Xrotation Yrotation
							JOINT RightHandThumb 
							{
								OFFSET	 0.00	0.00	 0.00
								CHANNELS 3 Zrotation Xrotation Yrotation
								End Site
								{
									OFFSET	 0.00	0.00	1.00000003353624
								}
							}
							JOINT R_Wrist_End 
							{
								OFFSET	 0.00	0.99999967115358	 0.00
								CHANNELS 3 Zrotation Xrotation Yrotation
								End Site 
								{
									OFFSET	 0.00	 0.00	 0.00
								}
							}
						}
					}
				}
			}
		}
	}
	JOINT LeftUpLeg
	{
		OFFSET	 1.2719394002717	 0.00	 0.00
		CHANNELS 3 Zrotation Xrotation Yrotation
		JOINT LeftLowLeg
		{
			OFFSET	 0.00	-4.3429100912261	 0.00
			CHANNELS 3 Zrotation Xrotation Yrotation
			JOINT LeftFoot
			{
				OFFSET	 0.00	-4.48767017425826	 0.00
				CHANNELS 3 Zrotation Xrotation Yrotation
				JOINT LeftToeBase
                {
                    OFFSET	 0.00	0.00	 1.51507020887566
                    CHANNELS 3 Zrotation Xrotation Yrotation
                    End Site 
                    {
                        OFFSET	 0.00	0.00	 0.75000010571191
                    }
                }
			}
		}
	}
	JOINT RightUpLeg
	{
		OFFSET	 -1.2719393604653	 0.00	 0.00
		CHANNELS 3 Zrotation Xrotation Yrotation
		JOINT RightLowLeg
		{
			OFFSET	 0.00	-4.3429100912261	 0.00
			CHANNELS 3 Zrotation Xrotation Yrotation
			JOINT RightFoot
			{
				OFFSET	 0.00	-4.48767017425826	 0.00
				CHANNELS 3 Zrotation Xrotation Yrotation
				JOINT RightToeBase
                {
                    OFFSET	 0.00	0.00	 1.51507020887566
                    CHANNELS 3 Zrotation Xrotation Yrotation
                    End Site 
                    {
                        OFFSET	 0.00	0.00	 0.749999965609858
                    }
                }   
			}
		}
	}
}
MOTION 
Frames:	8 
Frame Time: 0.02 
  -0.5169260025024414 0.06267210006713868 9.130499877929687 53.4913 77.9528 630.78 1.31045 -13.494 7.08938 -11.714 16.1014 6.48127 2.01995 45.5905 26.815 -68.7677 -60.2001 -57.3446 -113.2807 -3.5995 4.73346 -38.6253 13.919 -48.3824 0.0 37.406 0.0 -1.19433 -26.1869 -84.3997 0.0 0.0 0.0 0.0 0.0 0.0 116.7705 -6.08401 -0.566261 48.2539 9.75666 50.9191 0.0 48.142 0.0 8.0846 -11.1997 93.1342 0.0 0.0 0.0 0.0 0.0 0.0 -19.8968 -4.98409 -0.906803 0.0 11.3364 0.0 -3.50448 3.8611002 13.928 0.0 -23.75278 0.0 -16.1735 -13.5181 -9.84148 0.0 72.6748 0.0 38.8641 25.7575 16.3905 0.0 -25.932499 0.0 
  -0.5360990142822266 0.011307100057601929 9.1285498046875 54.7196 77.8224 629.357 1.60619 -13.5388 7.35186 -12.0953 16.2638 6.53325 2.14748 44.6717 26.1063 -69.2217 -59.8312 -57.2134 -113.6351 -3.60795 5.29296 -37.5132 15.0885 -50.5744 0.0 33.7138 0.0 -2.4664 -25.799 -83.9398 0.0 0.0 0.0 0.0 0.0 0.0 116.657 -5.68458 -0.586608 48.0047 10.8277 51.8844 0.0 45.102 0.0 8.28664 -12.2069 93.7704 0.0 0.0 0.0 0.0 0.0 0.0 -20.1201 -4.93056 -0.872874 0.0 11.3457 0.0 -3.44137 3.5928001 14.08 0.0 -23.71244 0.0 -16.7787 -16.0146 -9.4227 0.0 75.3664 0.0 37.6214 23.04359 15.7361 0.0 -27.3653 0.0 
  -0.5602569961547852 -0.03277400016784668 9.133270263671875 57.4277 77.9746 626.882 1.84786 -13.6814 7.44716 -12.0777 16.0951 6.42582 2.00779 44.0917 25.8898 -69.9709 -59.5952 -57.9191 -113.775 -3.74722 5.11829 -37.485 15.793 -52.3213 0.0 31.1262 0.0 -2.12117 -26.1787 -78.7234 0.0 0.0 0.0 0.0 0.0 0.0 116.531 -5.4891 -0.649357 48.0495 11.4665 52.8008 0.0 42.9325 0.0 8.49211 -12.6052 92.8076 0.0 0.0 0.0 0.0 0.0 0.0 -20.0454 -5.34739 -1.09776 0.0 11.8104 0.0 -3.48061 3.1767998 14.0757 0.0 -23.51038 0.0 -16.8441 -18.4627 -9.17149 0.0 77.014 0.0 36.6699 18.57457 14.1887 0.0 -27.4175 0.0 
  -0.5875270080566406 -0.06926390171051025 9.142670288085938 60.3886 78.3465 624.325 2.01136 -13.6855 7.39944 -11.6937 15.6081 6.18639 1.82225 43.8426 25.8978 -70.4208 -59.4493 -58.5618 -113.7863 -4.06422 4.85994 -38.2448 16.0933 -53.5111 0.0 30.0114 0.0 -1.93427 -26.2222 -77.8803 0.0 0.0 0.0 0.0 0.0 0.0 116.4882 -5.46314 -0.735055 48.2185 11.6215 53.0175 0.0 41.8051 0.0 8.60904 -12.0281 91.6585 0.0 0.0 0.0 0.0 0.0 0.0 -19.6925 -5.94113 -1.17509 0.0 12.6079 0.0 -3.1549 2.9132996 13.9379 0.0 -23.6471 0.0 -16.4693 -20.6029 -8.95004 0.0 77.4648 0.0 36.2051 13.89984 11.0905 0.0 -26.7202 0.0 
  -0.6220330047607422 -0.10256600379943848 9.154829711914063 62.7197 78.9194 622.71 1.98104 -13.4967 7.14233 -10.8315 15.0644 5.95652 1.80182 43.8482 25.7566 -71.3016 -59.3965 -59.6211 -113.8907 -4.11851 4.49353 -39.578 15.7639 -54.0935 0.0 30.3012 0.0 -1.56259 -26.0226 -78.9795 0.0 0.0 0.0 0.0 0.0 0.0 116.4173 -5.66017 -0.648136 48.589 11.3185 52.9632 0.0 41.5373 0.0 8.35493 -11.6214 90.2843 0.0 0.0 0.0 0.0 0.0 0.0 -19.1507 -6.30321 -1.68666 0.0 13.4295 0.0 -2.92172 2.5358 14.0003 0.0 -23.537071 0.0 -15.6681 -22.2407 -8.43469 0.0 76.9255 0.0 35.8021 9.42414 7.1588 0.0 -26.1416 0.0 
  -0.6627279663085938 -0.1372529983520508 9.169739990234374 62.4645 79.7592 623.95 2.01402 -13.0759 6.75815 -9.89016 14.9668 5.71036 1.67976 43.7447 25.9587 -71.7687 -59.4546 -60.702 -113.956 -4.02963 5.03935 -40.9816 15.5835 -54.3877 0.0 31.683 0.0 -1.38801 -25.3605 -81.918 0.0 0.0 0.0 0.0 0.0 0.0 116.5318 -5.8732 -1.26474 48.8406 11.4616 53.5707 0.0 41.8058 0.0 8.15407 -11.0183 90.3702 0.0 0.0 0.0 0.0 0.0 0.0 -18.3944 -6.04783 -2.26726 0.0 14.1664 0.0 -2.73015 2.1497002 14.0473 0.0 -23.494339 0.0 -14.5965 -22.7512 -7.82602 0.0 75.2044 0.0 34.9855 4.9679003 3.27849 0.0 -25.667099 0.0 
  -0.7042800140380859 -0.1730190086364746 9.181510009765624 65.5217 80.3281 621.742 1.77505 -13.2697 6.27813 -8.75939 14.803 5.59721 1.71307 43.4496 25.7457 -71.9114 -59.3413 -61.1834 -114.2297 -4.16743 4.48735 -42.4832 14.7941 -53.9813 0.0 33.1355 0.0 -0.876913 -25.0176 -81.8442 0.0 0.0 0.0 0.0 0.0 0.0 116.501495 -5.89998 -0.492674 49.4463 10.0937 53.0346 0.0 42.793 0.0 7.7684 -11.0197 89.9176 0.0 0.0 0.0 0.0 0.0 0.0 -17.8449 -6.19638 -3.18948 0.0 14.5291 0.0 -2.89566 1.7515001 14.231 0.0 -23.38422 0.0 -13.6307 -23.776 -6.78356 0.0 72.8705 0.0 33.3281 0.7233 -0.601315 0.0 -24.85046 0.0 
  -0.751604995727539 -0.2121310043334961 9.19468994140625 63.9194 81.1642 624.532 1.88323 -12.8209 5.9879 -8.11558 14.9098 5.38237 2.44896 43.3128 25.0431 -72.1832 -59.6 -61.7353 -114.280396 -3.98525 5.25218 -43.5176 14.5823 -53.6882 0.0 34.7795 0.0 -0.326636 -24.5437 -82.0594 0.0 0.0 0.0 0.0 0.0 0.0 116.9129 -6.10826 -1.44063 49.6439 10.128 53.7823 0.0 43.6579 0.0 7.03364 -10.8426 89.3304 0.0 0.0 0.0 0.0 0.0 0.0 -17.0655 -5.51013 -3.78156 0.0 14.9164 0.0 -2.74799 1.3694 14.1045 0.0 -23.31559 0.0 -12.5012 -23.3883 -5.54543 0.0 69.489 0.0 32.2014 -2.8162003 -3.9626 0.0 -24.42292 0.0 
